# xmcd CD database file
#
# Track frame offsets:
#	150
#	29231
#	46275
#	66970
#	92649
#	113179
#	138910
#	174331
#	201669
#	239651
#	249130
#
# Disc length: 3814 seconds
#
# Revision: 0
# Processed by: cddbd v1.5.2PL0 Copyright (c) Steve Scherf et al.
# Submitted via: CDex 1.70beta2
#
DISCID=9f0ee40b
DTITLE=Omer Avital - Arrival
DYEAR=2006
DGENRE=Jazz
TTITLE0=Song for Amos
TTITLE1=BigTime
TTITLE2=3rdWorld Love Story
TTITLE3=Sea And Sand
TTITLE4=Arrival
TTITLE5=Faith
TTITLE6=Cyprusses
TTITLE7=Vincent
TTITLE8=Song Of Thanks
TTITLE9=Middle Eastern Sunset
TTITLE10=Lilian InThe Big Blue
EXTD=YEAR: 2006
EXTT0=
EXTT1=
EXTT2=
EXTT3=
EXTT4=
EXTT5=
EXTT6=
EXTT7=
EXTT8=
EXTT9=
EXTT10=
PLAYORDER=
